<svg xmlns="http://www.w3.org/2000/svg" id="story" class="animated" version="1.1" viewBox="0 0 500 500"><style>@keyframes slideDown{0%{opacity:0;transform:translateY(-30px)}}@keyframes floating{0%{opacity:1;transform:translateY(0)}50%{transform:translateY(-10px)}}@keyframes slideLeft{0%{opacity:0;transform:translateX(-30px)}}svg#story:not(.animated) .animable{opacity:0}</style><g id="freepik--Floor--inject-103" class="animable"><path id="el65ea1zwfryw" fill="#f5f5f5" d="M409 248c-88-51-231-51-319 0S3 382 91 433s231 51 319 0 87-134-1-185Z" class="animable" transform-origin="250px 340.228px 0"/></g><g id="freepik--Shadows--inject-103" class="animable"><path id="elu0q29sri7b" fill="#e0e0e0" d="M155 331c29-17 77-17 107 0 26 15 28 38 8 55 17-1 33 2 46 10 22 12 21 33 0 45s-58 13-79 0c-18-10-21-25-11-37-25 4-52 0-72-11-29-17-29-45 1-62Z" class="animable" transform-origin="232.211px 384.308px 0"/><path id="eldbn104l7x06" fill="#e0e0e0" d="M89 373c-7-4-18-4-24 0s-7 10 0 14 17 4 24 0 6-10 0-14Z" class="animable" transform-origin="76.7506px 380.052px 0"/></g><g id="freepik--Plant--inject-103" class="animable"><path id="elshm2bg7n4u" fill="#fff" d="m93 351-16 1H61c-1 10 1 21 4 26a7 7 0 0 0 3 4c5 2 13 2 17 0a7 7 0 0 0 3-4c3-5 5-16 5-27Z" class="animable" transform-origin="76.7538px 367.578px 0"/><path id="elwzq6184pss" fill="#ebebeb" d="M88 345c6 4 6 9 0 13s-16 4-22 0-7-9 0-13 16-4 22 0Z" class="animable" transform-origin="76.75px 351.5px 0"/><path id="elvelqp7748z" fill="#e0e0e0" d="M85 346c5 3 5 8 1 11s-13 2-18 0-5-8 0-11 13-2 17 0Z" class="animable" transform-origin="76.7531px 351.492px 0"/><g id="elgef71eczt4" class="animable" opacity=".1"><path id="eleo165q7fpiv" d="M85 346c5 3 5 8 1 11s-13 2-18 0-5-8 0-11 13-2 17 0Z" class="animable" transform-origin="76.7531px 351.492px 0"/></g><path id="elxi72aw9e6hq" fill="#7e57c2" d="M103 284c-36 12-36 35-28 52 2 4 8 6 13-15l-9 1 11-6 3-8h-9l11-4a171 171 0 0 1 8-20Z" class="animable" transform-origin="86.6608px 311.264px 0"/><path id="elocw4yypvfz8" d="M103 284c-36 12-36 35-28 52 2 4 8 6 13-15l-9 1 11-6 3-8h-9l11-4a171 171 0 0 1 8-20Z" class="animable" opacity=".2" transform-origin="86.6608px 311.264px 0"/><path id="elmwt5woaj6r" fill="#fff" d="M103 284c-36 12-36 35-28 52 2 4 8 6 13-15l-9 1 11-6 3-8h-9l11-4a171 171 0 0 1 8-20Z" class="animable" opacity=".2" transform-origin="86.6608px 311.264px 0"/><path id="elz9w5ekup3lf" fill="#fff" d="M93 290c-19 14-21 31-16 48-1-15-3-31 16-48Z" class="animable" transform-origin="83.7818px 313.77px 0"/><path id="el4ppvuczk7og" fill="#7e57c2" d="M42 308c36 5 40 27 35 44-1 4-7 7-15-12h9l-11-4-4-7 8-1-11-3a163 163 0 0 0-11-17Z" class="animable" transform-origin="60.5131px 331.595px 0"/><path id="elcn9f8645u3b" fill="#fff" d="M42 308c36 5 40 27 35 44-1 4-7 7-15-12h9l-11-4-4-7 8-1-11-3a163 163 0 0 0-11-17Z" class="animable" opacity=".2" transform-origin="60.5131px 331.595px 0"/><path id="el06tcgluqysbh" d="M42 308c36 5 40 27 35 44-1 4-7 7-15-12h9l-11-4-4-7 8-1-11-3a163 163 0 0 0-11-17Z" class="animable" opacity=".1" transform-origin="60.5131px 331.595px 0"/><path id="elv2j622q4jqf" fill="#fff" d="M53 312c20 10 24 25 22 42-1-14-2-29-22-42Z" class="animable" transform-origin="64.0279px 333.03px 0"/><path id="eld9hdsmg9yz" fill="#7e57c2" d="M113 316c-32 1-38 20-36 36 1 4 5 7 15-9l-8-1 10-2 5-7-8-1 11-1a148 148 0 0 1 11-15Z" class="animable" transform-origin="94.7203px 335.819px 0"/><path id="elxc0dk1l3y8" fill="#fff" d="M103 319c-19 7-24 20-24 35 2-13 4-26 24-35Z" class="animable" transform-origin="90.9799px 336.485px 0"/><path id="el9k5nvzrzv1o" fill="#fff" d="M113 316c-32 1-38 20-36 36 1 4 5 7 15-9l-8-1 10-2 5-7-8-1 11-1a148 148 0 0 1 11-15Z" class="animable" opacity=".2" transform-origin="94.7203px 335.819px 0"/></g><g id="character" class="animable" style="animation:1s 1 forwards cubic-bezier(.36,-.01,.5,1.38) slideDown;animation-delay:0s"><path id="eljrtkvb97su7" fill="#455a64" d="M247 272c10 7 22 12 30 21 16 18 16 46 4 66s-35 32-59 35-50-4-69-19-32-40-32-65 13-49 33-63c19-12 46-16 65-2 10 7 16 18 26 25l2 2Z" class="animable" transform-origin="205.328px 315.371px 0"/><path id="el5w3aoz396kr" d="M247 272c10 7 22 12 30 21 16 18 16 46 4 66s-35 32-59 35-50-4-69-19-32-40-32-65 13-49 33-63c19-12 46-16 65-2 10 7 16 18 26 25l2 2Z" class="animable" opacity=".2" transform-origin="205.328px 315.371px 0"/><path id="elieerof5fao9" fill="#fff" d="M247 272c10 7 22 12 30 21 16 18 16 46 4 66s-35 32-59 35-50-4-69-19-32-40-32-65 13-49 33-63c19-12 46-16 65-2 10 7 16 18 26 25l2 2Z" class="animable" opacity=".1" transform-origin="205.328px 315.371px 0"/><path id="el3g2pipkcxp4" d="M243 375v-1a27 27 0 0 0-21-22 84 84 0 0 1-28-11c-6-3-12-8-18-10a30 30 0 0 0-20 2c5-6 15-9 23-6-6-9-10-18-12-27s-1-21 5-28a28 28 0 0 1 44-3c6 7 9 15 13 23 3 6 5 11 10 15 7 7 16 9 23 15 8 7 12 18 12 29a83 83 0 0 1-3 21 80 80 0 0 1-29 17 31 31 0 0 0 1-14Z" class="animable" opacity=".1" transform-origin="214.73px 324.587px 0"/><path id="eleaz2j3z15ng" fill="#fff" d="M134 307a72 72 0 0 1 62-71 51 51 0 0 1 7 2 70 70 0 0 0-67 69c0 23 11 46 30 62 15 13 35 22 58 25h-8c-19-3-37-12-51-23a84 84 0 0 1-31-64Z" class="animable" transform-origin="178.833px 315.375px 0"/><path id="elrqxby6i8zj" fill="#ffa8a7" d="m269 367-1 11-3-1a7 7 0 0 0-8 2 3 3 0 0 1-4 1 3 3 0 0 1 0-2l-1-12Z" class="animable" transform-origin="260.545px 373.055px 0"/><path id="elh7mgmycvtm" fill="#f5f5f5" d="M258 410c6 6 16 11 24 6l-1 2c-7 5-18 0-23-6s-2-10-8-16a19 19 0 0 1-4-6l1-2a23 23 0 0 0 4 6c5 6 2 10 7 16Z" class="animable" transform-origin="264.055px 404.008px 0"/><path id="elokoh7gjrank" fill="#7e57c2" d="M250 381a11 11 0 0 0 1-4 2 2 0 0 1 1-1l1 2a3 3 0 0 0 4 1 7 7 0 0 1 8-2l3 1a2 2 0 0 1 1 2c0 8 4 19 8 25 4 1 7 7 5 11-8 5-18 0-24-6s-2-10-7-16a23 23 0 0 1-4-6 25 25 0 0 1 3-7Z" class="animable" transform-origin="264.736px 396.935px 0"/><path id="els78f9jce3w" d="M250 381a11 11 0 0 0 1-4 2 2 0 0 1 1-1l1 2a3 3 0 0 0 4 1 7 7 0 0 1 8-2l3 1a2 2 0 0 1 1 2c0 8 4 19 8 25 4 1 7 7 5 11-8 5-18 0-24-6s-2-10-7-16a23 23 0 0 1-4-6 25 25 0 0 1 3-7Z" class="animable" opacity=".3" transform-origin="264.736px 396.935px 0"/><path id="elkndo49uez0m" fill="#fff" d="M250 381a11 11 0 0 0 1-4 2 2 0 0 1 1-1l1 2a3 3 0 0 0 4 1 7 7 0 0 1 8-2l3 1a2 2 0 0 1 1 2c0 8 4 19 8 25 4 1 7 7 5 11-8 5-18 0-24-6s-2-10-7-16a23 23 0 0 1-4-6 25 25 0 0 1 3-7Z" class="animable" opacity=".2" transform-origin="264.736px 396.935px 0"/><path id="ell0gdkfgwi1c" fill="#fff" d="M261 393a1 1 0 0 1-2-1 1 1 0 0 1 1-1 11 11 0 0 1 11 0v2c-3-2-6-2-10 0Z" class="animable" transform-origin="265.209px 391.322px 0"/><path id="elhxgn6ivc0vi" fill="#fff" d="M259 389a1 1 0 0 1-1-2 12 12 0 0 1 12 0v2c-3-2-7-3-11 0Z" class="animable" transform-origin="264.046px 387.126px 0"/><path id="elqpivwg007uo" fill="#fff" d="M262 397a1 1 0 0 1-1 0 1 1 0 0 1 0-2 11 11 0 0 1 11 0l1 2a11 11 0 0 0-11 0Z" class="animable" transform-origin="266.729px 395.619px 0"/><path id="elsfaa041t3v" fill="#fff" d="M277 405c4 1 7 7 5 11-7 5-18 0-23-6 4-9 14-7 18-5Z" class="animable" transform-origin="270.681px 410.928px 0"/><path id="eld8c8u8tpe9h" fill="#fff" d="M264 401a1 1 0 0 1-1-1 11 11 0 0 1 11-1l1 3c-4-2-7-3-11-1Z" class="animable" transform-origin="268.613px 399.858px 0"/><path id="elvsr6g2mppl" fill="#ffa8a7" d="m281 390 3 11h-3a7 7 0 0 0-6 5 3 3 0 0 1-3 2 3 3 0 0 1-2-2l-5-10Z" class="animable" transform-origin="274.705px 398.959px 0"/><path id="elftj4uoown4" fill="#f5f5f5" d="M289 434c7 3 19 4 24-4v2c-5 8-17 7-24 4s-6-9-13-12a19 19 0 0 1-7-4v-2a23 23 0 0 0 7 4c7 3 5 9 13 12Z" class="animable" transform-origin="290.83px 428.064px 0"/><path id="el6mm7k6wfedu" fill="#7e57c2" d="M269 411a11 11 0 0 0 0-4 2 2 0 0 1 0-2l1 1a3 3 0 0 0 5 0 7 7 0 0 1 6-5h3a2 2 0 0 1 3 1c3 8 10 16 16 20 4-1 10 3 10 7v1c-5 8-17 7-24 4s-6-9-13-12a23 23 0 0 1-7-4 24 24 0 0 1 0-7Z" class="animable" transform-origin="290.766px 418.518px 0"/><path id="elzh8tjqu7fos" d="M269 411a11 11 0 0 0 0-4 2 2 0 0 1 0-2l1 1a3 3 0 0 0 5 0 7 7 0 0 1 6-5h3a2 2 0 0 1 3 1c3 8 10 16 16 20 4-1 10 3 10 7v1c-5 8-17 7-24 4s-6-9-13-12a23 23 0 0 1-7-4 24 24 0 0 1 0-7Z" class="animable" opacity=".3" transform-origin="290.766px 418.518px 0"/><path id="el0nkrtcwji9q" fill="#fff" d="M269 411a11 11 0 0 0 0-4 2 2 0 0 1 0-2l1 1a3 3 0 0 0 5 0 7 7 0 0 1 6-5h3a2 2 0 0 1 3 1c3 8 10 16 16 20 4-1 10 3 10 7v1c-5 8-17 7-24 4s-6-9-13-12a23 23 0 0 1-7-4 24 24 0 0 1 0-7Z" class="animable" opacity=".2" transform-origin="290.766px 418.518px 0"/><path id="el88le93o5j0t" fill="#fff" d="M284 417a1 1 0 0 1-2-1 11 11 0 0 1 10-5l1 2c-3 0-6 1-9 4Z" class="animable" transform-origin="287.726px 414.333px 0"/><path id="el08rsg6dhdplc" fill="#fff" d="M281 414a1 1 0 0 1-2 0 1 1 0 0 1 0-2 12 12 0 0 1 11-4l1 2c-4-1-7 0-10 4Z" class="animable" transform-origin="284.822px 410.978px 0"/><path id="el7vzp9aamjp9" fill="#fff" d="M287 420a1 1 0 0 1-2 0 1 1 0 0 1 0-1 11 11 0 0 1 10-4l1 1c-3 0-6 1-9 4Z" class="animable" transform-origin="290.786px 417.691px 0"/><path id="ell9epuuf7h9f" fill="#fff" d="M303 422c4 0 10 3 10 7v1c-5 8-16 7-24 4 1-11 11-12 14-12Z" class="animable" transform-origin="300.845px 428.829px 0"/><path id="elfj48ia2s9l" fill="#fff" d="M290 423a1 1 0 0 1-2-1 11 11 0 0 1 10-4l2 1c-4 0-7 1-10 4Z" class="animable" transform-origin="294.212px 420.77px 0"/><path id="elrpj3yejs8xg" fill="#263238" d="m236 291 38 21a19 19 0 0 1 10 20l-8 40 6 19c-5 7-17 8-17 8-7-14-12-19-15-31l-7-19-31-8a38 38 0 0 1-28-32l-1-8Z" class="animable" transform-origin="233.696px 344.79px 0"/><path id="elm5i7sp0i6om" d="M236 302a18 18 0 0 1-5 11l27 17a19 19 0 0 1 9 11l9 31-8-35a16 16 0 0 0-7-9l-25-16c2-6 0-10 0-10Z" class="animable" opacity=".2" transform-origin="253.835px 336.815px 0"/><path id="eleckgrdy2syg" fill="#e0e0e0" d="M206 317a2 2 0 0 0 0 1 3 3 0 0 0 1 0l28 16a4 4 0 0 0 0 1h5a4 4 0 0 0 0-1l46-26a4 4 0 0 0 1 0v-1a1 1 0 0 0 1 0v-1 2a2 2 0 0 1-1 1 3 3 0 0 1-1 0l-46 27a5 5 0 0 1-1 1 5 5 0 0 1-1 0h-1a4 4 0 0 1-1 0v-1h-1l-28-16a3 3 0 0 1-1-1 2 2 0 0 1 0-1v-2Z" class="animable" transform-origin="246.575px 321.441px 0"/><path id="ellk0u80fkbcc" d="M206 317a2 2 0 0 0 0 1 3 3 0 0 0 1 0l28 16a4 4 0 0 0 0 1h5a4 4 0 0 0 0-1l46-26a4 4 0 0 0 1 0v-1a1 1 0 0 0 1 0v-1 2a2 2 0 0 1-1 1 3 3 0 0 1-1 0l-46 27a5 5 0 0 1-1 1 5 5 0 0 1-1 0h-1a4 4 0 0 1-1 0v-1h-1l-28-16a3 3 0 0 1-1-1 2 2 0 0 1 0-1v-2Z" class="animable" opacity=".2" transform-origin="246.575px 321.441px 0"/><path id="elgfslz7vs75" fill="#e0e0e0" d="M288 307a1 1 0 0 1-1 0v1a4 4 0 0 1-1 0l-46 27h-5a4 4 0 0 1 0-1l-28-16a3 3 0 0 1-1 0 2 2 0 0 1 0-1 2 2 0 0 1 1-2l46-27a6 6 0 0 1 6 0l28 17a2 2 0 0 1 1 1 2 2 0 0 1 0 1Z" class="animable" transform-origin="246.705px 311.39px 0"/><path id="eletxv4hdry25" fill="#e0e0e0" d="m284 306-45 26a2 2 0 0 1-1 0h-2l-14-8 46-27Z" class="animable" transform-origin="252.74px 314.655px 0"/><path id="elb9oj9xbfeq" fill="#263238" d="M238 332Z" class="animable" transform-origin="237.5px 332.39px 0"/><path id="eljgdy1g7n5v" fill="#e0e0e0" d="m241 299 9 5a1 1 0 0 1 0 2l-13 7a1 1 0 0 1-1 0l-9-5a1 1 0 0 1 0-2l13-7a1 1 0 0 1 1 0Z" class="animable" transform-origin="238.395px 305.98px 0"/><path id="elkr244cdmcvj" d="m284 306-45 26a2 2 0 0 1-1 0h-2l-14-8 46-27Z" class="animable" opacity=".4" transform-origin="252.74px 314.655px 0"/><path id="el8b46i9j4j5j" d="m241 299 9 5a1 1 0 0 1 0 2l-13 7a1 1 0 0 1-1 0l-9-5a1 1 0 0 1 0-2l13-7a1 1 0 0 1 1 0Z" class="animable" opacity=".4" transform-origin="238.395px 305.98px 0"/><path id="el0ewkkrh5avc" fill="#e0e0e0" d="m238 333 5-30a6 6 0 0 1 2-4l47-27a1 1 0 0 1 1-1l1 1a1 1 0 0 1 0 1l-5 30a6 6 0 0 1-3 4l-46 27v1l-1-1a1 1 0 0 1-1-1Z" class="animable" transform-origin="265.918px 303.124px 0"/><path id="elav9f0wepi8w" d="m238 333 5-30a6 6 0 0 1 2-4l47-27a1 1 0 0 1 1-1l1 1a1 1 0 0 1 0 1l-5 30a6 6 0 0 1-3 4l-46 27v1l-1-1a1 1 0 0 1-1-1Z" class="animable" opacity=".3" transform-origin="265.918px 303.124px 0"/><path id="el7rk4izsao0h" fill="#e0e0e0" d="m246 299 47-27a1 1 0 0 1 2 1l-5 31a6 6 0 0 1-3 4l-46 27a1 1 0 0 1-2-2l5-30a6 6 0 0 1 2-4Z" class="animable" transform-origin="266.764px 303.409px 0"/><path id="elfy3cs25ck5" fill="#fff" d="M269 300a10 10 0 0 0-5 6c0 3 1 4 4 2a10 10 0 0 0 4-6c1-3-1-3-3-2Z" class="animable" transform-origin="268.184px 304.095px 0"/><path id="elwlovyxo89ir" fill="#f28f8f" d="m241 254 13 10 8-13-10-12c-9 4-11 15-11 15Z" class="animable" transform-origin="251.77px 251.4px 0"/><path id="elcjczbmb5ow" fill="#455a64" d="M223 219c10-1 11 1 17 7l13 13c-10 5-11 17-11 17l-10-8Z" class="animable" transform-origin="237.95px 237.151px 0"/><path id="el72jc3c35ggj" fill="#fff" d="M223 219c10-1 11 1 17 7l13 13c-10 5-11 17-11 17l-10-8Z" class="animable" opacity=".5" transform-origin="237.95px 237.151px 0"/><path id="elmit24zrhpv8" fill="#455a64" d="M187 227c14-7 24-7 36-8 17 11 11 20 10 35s-3 24 7 39a58 58 0 0 1-58 8c-4-41-3-71 5-74Z" class="animable" transform-origin="209.94px 262.28px 0"/><path id="elirj3zs0xpih" fill="#fff" d="M187 227c14-7 24-7 36-8 17 11 11 20 10 35s-3 24 7 39a58 58 0 0 1-58 8c-4-41-3-71 5-74Z" class="animable" opacity=".7" transform-origin="209.94px 262.28px 0"/><path id="el2431w5ngkz3" fill="#37474f" d="M230 197a12 12 0 0 0 1-17 7 7 0 0 0 3-3 4 4 0 0 0-5-4 5 5 0 0 0-3-5 5 5 0 0 0-6 1 3 3 0 0 0-2-2 6 6 0 0 0-4 0l-4 2a29 29 0 0 1-6 2 14 14 0 0 0-7 3c-1 1-3 4-1 7a4 4 0 0 0-3-1 4 4 0 0 0-3 1l5 2c-2 0-4 1-4 3a9 9 0 0 0-1 4 62 62 0 0 0 6 17c1 3 3 6 6 7Z" class="animable" transform-origin="211.988px 190.378px 0"/><path id="elsel4mlxuf78" fill="#ffa8a7" d="M230 182a15 15 0 0 1-10 4l-11-2a8 8 0 0 1-2 5 9 9 0 0 1-5 2 30 30 0 0 1 0 9 2 2 0 0 1-1 1c-1 1-2 0-2-1a8 8 0 0 0-3-3 4 4 0 0 0-3 0 4 4 0 0 0-2 2 7 7 0 0 0 0 3 9 9 0 0 0 2 4 6 6 0 0 0 4 3 4 4 0 0 0 4-2 12 12 0 0 0 1 1 13 13 0 0 0 9 8 119 119 0 0 0 10 2 9 9 0 0 0 10-7c1-9 2-20-1-29Z" class="animable" transform-origin="211.43px 200.071px 0"/><path id="eldqkrkmq6jh8" fill="#ffa8a7" d="M202 208v16a18 18 0 0 0 13 7 6 6 0 0 0 4-1 4 4 0 0 0 0-6 2 2 0 0 1-1-1v-6l-7-1a13 13 0 0 1-9-8Z" class="animable" transform-origin="211.144px 219.9px 0"/><path id="el5yoi6kib6yq" d="M212 220a34 34 0 0 0 6 1v-4l-7-1a12 12 0 0 1-9-7 13 13 0 0 0 3 7 15 15 0 0 0 7 4Z" class="animable" opacity=".2" transform-origin="209.98px 214.855px 0"/><path id="elln976269q9m" fill="#7e57c2" d="M223 194h-2a15 15 0 0 0-15-2v2l1 1a22 22 0 0 1 0 4 6 6 0 0 0 2 4l4 1a8 8 0 0 0 4-1 6 6 0 0 0 2-3l1-4a1 1 0 0 1 2 0 1 1 0 0 1 1 0l1 4a6 6 0 0 0 2 3 7 7 0 0 0 3 1 6 6 0 0 0 4-1 6 6 0 0 0 2-4 24 24 0 0 1 0-4l1-1v-2a13 13 0 0 0-13 2Zm-3 1-1 1a18 18 0 0 1-1 4 5 5 0 0 1-2 2 6 6 0 0 1-2 1h-1a5 5 0 0 1-3-1 4 4 0 0 1-1-3v-6a13 13 0 0 1 3-1 14 14 0 0 1 7 2l1 1Zm14 3v1a5 5 0 0 1-1 3 5 5 0 0 1-4 1 5 5 0 0 1-2-1 5 5 0 0 1-2-2 19 19 0 0 1-1-4v-2a12 12 0 0 1 6-2 12 12 0 0 1 4 1v5Z" class="animable" transform-origin="221.14px 197.44px 0"/><path id="elm44y9su4txn" fill="#7e57c2" d="m206 192-11 4a5 5 0 0 1 2 1l9-3Z" class="animable" transform-origin="200.545px 194.821px 0"/><path id="eljlggd0rfi8" fill="#f28f8f" d="m222 196 5 7-5 2v-9z" class="animable" transform-origin="224.465px 200.21px 0"/><path id="elctps0r8atec" fill="#37474f" d="M213 197a2 2 0 1 0 2-2 2 2 0 0 0-2 2Z" class="animable" transform-origin="214.91px 196.63px 0"/><path id="el6tak6i4k23g" fill="#37474f" d="M227 196a2 2 0 1 0 1-1 2 2 0 0 0-1 1Z" class="animable" transform-origin="228.37px 196.19px 0"/><path id="el93ko29ckty5" fill="#37474f" d="m226 189 4 1a2 2 0 0 0-2-2 3 3 0 0 0-2 1Z" class="animable" transform-origin="228.065px 188.604px 0"/><path id="elx1vsoqnz5u" fill="#37474f" d="m216 189-4 1a2 2 0 0 1 1-2 3 3 0 0 1 3 1Z" class="animable" transform-origin="213.985px 189.039px 0"/><path id="eld8aoaiqo81i" fill="#f28f8f" d="m216 208 5 1a3 3 0 0 1-3 2 3 3 0 0 1-2-3Z" class="animable" transform-origin="218.602px 209.198px 0"/><path id="el6gummvd3hfh" d="m216 208 5 1a3 3 0 0 1-3 2 3 3 0 0 1-2-3Z" class="animable" opacity=".3" transform-origin="218.602px 209.198px 0"/><path id="elaml8w3tedx8" fill="#f28f8f" d="M219 211a3 3 0 0 1-1 0 2 2 0 0 1-2-3 3 3 0 0 1 3 3Z" class="animable" transform-origin="217.78px 209.586px 0"/><path id="el8076jxp47oh" fill="#f28f8f" d="m231 230-4 2a2 2 0 0 0-1 2 2 2 0 0 0 2 1l10-2-3-4Z" class="animable" transform-origin="232.094px 232.254px 0"/><path id="el6cb0mshj4ul" fill="#ffa8a7" d="m240 234 13 29a9 9 0 0 0 11 5 9 9 0 0 0 4-13l-21-26a12 12 0 0 0-3-2l-6-5a13 13 0 0 0-6-2l-3-2a3 3 0 0 0-3-1l-4 2a3 3 0 0 0 3 2l2-1 2 2-3 4a2 2 0 0 0 1 3l5 4a2 2 0 0 0 2 1 2 2 0 0 0 1-3 7 7 0 0 0 5 3Z" class="animable" transform-origin="245.478px 242.819px 0"/><path id="elg3ta3nk1eyp" fill="#f28f8f" d="M229 222a7 7 0 0 1 2-2h-4Z" class="animable" transform-origin="229.28px 221px 0"/><path id="ellkdlp9f9n4a" fill="#ffa8a7" d="m191 265-5 15 27 19 8 3a14 14 0 0 1 6 5l7 10c1 2-3 4-4 5a6 6 0 0 1-6-2l-6-5h-1a23 23 0 0 1-12-9l-30-12a12 12 0 0 1-7-14l5-19Z" class="animable" transform-origin="200.806px 291.619px 0"/><path id="elz932ydxz8bb" fill="#455a64" d="m191 267 7-22s0-20-8-19-13 6-20 35v1a35 35 0 0 0 21 5Z" class="animable" transform-origin="184.055px 246.651px 0"/><path id="el4tlr07cocdq" fill="#fff" d="m191 267 7-22s0-20-8-19-13 6-20 35v1a35 35 0 0 0 21 5Z" class="animable" opacity=".5" transform-origin="184.055px 246.651px 0"/></g><g id="light-bulb" class="animable" style="animation:1s 1 forwards cubic-bezier(.36,-.01,.5,1.38) slideDown,1.5s Infinite linear floating;animation-delay:0s,1s"><g id="freepik--freepik--light--inject-77--inject-103" class="animable"><path id="elmrzgys51wkm" fill="#37474f" d="M211 149a4 4 0 1 1-4-3 4 4 0 0 1 4 3Z" class="animable" transform-origin="207.301px 149.219px 0"/><path id="el7v8wh3nvala" fill="#455a64" d="M203 150c-2-2-2-4 0-5a9 9 0 0 1 8 0c3 1 3 3 0 4a9 9 0 0 1-8 1Z" class="animable" transform-origin="207.2px 147.023px 0"/><path id="elnwse8gelsyh" fill="#37474f" d="M203 148c-3-1-3-3 0-5a10 10 0 0 1 9 0c2 1 2 4 0 5a10 10 0 0 1-9 0Z" class="animable" transform-origin="207.205px 145.665px 0"/><path id="eln5prxdo87" fill="#455a64" d="M203 147c-3-1-3-4 0-5a10 10 0 0 1 9 0c2 1 2 3 0 5a10 10 0 0 1-9 0Z" class="animable" transform-origin="207.208px 144.378px 0"/><path id="elyr0iyexkoqn" fill="#37474f" d="M203 146c-3-2-3-4-1-6a10 10 0 0 1 10 0c2 2 2 4 0 5a10 10 0 0 1-9 1Z" class="animable" transform-origin="207.166px 142.842px 0"/><path id="elyjscji1w4o" fill="#455a64" d="M202 144c-2-1-2-4 0-5a10 10 0 0 1 10 0c2 1 2 3 0 5a10 10 0 0 1-10 0Z" class="animable" transform-origin="207.107px 141.376px 0"/><path id="elfes20rin4n" fill="#7e57c2" d="M207 103a17 17 0 0 0-17 17c0 13 11 15 11 21a3 3 0 0 0 2 2 9 9 0 0 0 8 0 3 3 0 0 0 2-2c0-6 11-8 11-22a17 17 0 0 0-17-16Z" class="animable" transform-origin="206.761px 123.475px 0"/><g id="ela4rt34bgxx9" class="animable" opacity=".6"><path id="eluzckna2h5k8" fill="#fff" d="M207 103a17 17 0 0 0-17 17c0 13 11 15 11 21a3 3 0 0 0 2 2 9 9 0 0 0 8 0 3 3 0 0 0 2-2c0-6 11-8 11-22a17 17 0 0 0-17-16Z" class="animable" transform-origin="206.761px 123.475px 0"/></g><path id="elehltkw9d86g" fill="#7e57c2" d="M204 142c-2-1-2-2 0-3a7 7 0 0 1 6 0c2 1 2 2 0 3a7 7 0 0 1-6 0Z" class="animable" transform-origin="207.1px 140.611px 0"/><path id="el269vchohqxa" fill="#fff" d="M209 140a42 42 0 0 1 1-10 19 19 0 0 1 1-3 8 8 0 0 1-2 0 10 10 0 0 1-2-2 10 10 0 0 1-2 2 9 9 0 0 1-2 0 21 21 0 0 1 1 3 40 40 0 0 1 1 10 1 1 0 0 1-1 0 41 41 0 0 0-1-10 19 19 0 0 0-1-2 4 4 0 0 1-3-1 2 2 0 0 1 0-3 2 2 0 0 1 1 0 4 4 0 0 1 3 2 6 6 0 0 0 1 0 9 9 0 0 0 2-2 4 4 0 0 1-1-3 2 2 0 0 1 2-2 1 1 0 0 1 1 2 4 4 0 0 1 0 3 9 9 0 0 0 2 2 6 6 0 0 0 1 0 4 4 0 0 1 2-2 2 2 0 0 1 2 0 2 2 0 0 1 0 3 4 4 0 0 1-3 1 19 19 0 0 0-1 2 41 41 0 0 0-1 10 1 1 0 0 1-1 0Zm-9-15v1a2 2 0 0 0 2 1 3 3 0 0 0-2-2Zm12 1a2 2 0 0 0 2 0v-1l-2 1Zm-5-5h-1a3 3 0 0 0 1 2 3 3 0 0 0 0-2Z" class="animable" transform-origin="206.823px 129.793px 0"/></g><path id="elq5t8s8vw54" fill="#e0e0e0" d="M207 97a1 1 0 0 1-1 0 1 1 0 0 1-1-2v-5a1 1 0 0 1 1-1 1 1 0 0 1 1 1v5a1 1 0 0 1 0 2Z" class="animable" transform-origin="206.155px 92.5774px 0"/><path id="elik9n0a9s3e" fill="#e0e0e0" d="M194 100a1 1 0 0 1-1 0l-3-5a1 1 0 0 1 2-1l3 4a1 1 0 0 1 0 2 1 1 0 0 1-1 0Z" class="animable" transform-origin="192.59px 96.6138px 0"/><path id="el2zza1y7mvuv" fill="#e0e0e0" d="M186 109a1 1 0 0 1-1 0l-5-3a1 1 0 0 1-1-1 1 1 0 0 1 2-1l5 3a1 1 0 0 1 0 2Z" class="animable" transform-origin="182.787px 106.79px 0"/><path id="ellg5fx0e3nor" fill="#e0e0e0" d="M183 122a1 1 0 0 1-1 0h-5a1 1 0 0 1-2-1 1 1 0 0 1 1-1l6-1a1 1 0 0 1 1 2 1 1 0 0 1 0 1Z" class="animable" transform-origin="179.405px 120.59px 0"/><path id="eloql1dogaiu" fill="#e0e0e0" d="M237 120h-6a1 1 0 1 1 0-2h6a1 1 0 0 1 0 2Z" class="animable" transform-origin="234.053px 119.318px 0"/><path id="elrk41apta1i8" fill="#e0e0e0" d="M228 108a1 1 0 0 1-1-2l5-3a1 1 0 0 1 2 1 1 1 0 0 1-1 1l-5 3Z" class="animable" transform-origin="230.128px 105.723px 0"/><path id="el5f8gdlzf62" fill="#e0e0e0" d="M219 100a1 1 0 0 1-1-2l2-5a1 1 0 0 1 2 1l-2 5a1 1 0 0 1-1 1Z" class="animable" transform-origin="219.877px 96.0281px 0"/></g><g id="window" class="animable" style="animation:1s 1 forwards cubic-bezier(.36,-.01,.5,1.38) slideLeft,1.5s Infinite linear floating;animation-delay:0s,1s"><path id="elvzmg2rynvqq" fill="#e0e0e0" d="M313 258v-8l-5-3v8l5 3z" class="animable" transform-origin="310.485px 252.33px 0"/><path id="elrd8ay8cfzq" fill="#7e57c2" d="M313 374V258l-5-3v116a2 2 0 0 0 1 1l5 4a2 2 0 0 1-1-2Z" class="animable" transform-origin="310.94px 315.22px 0"/><path id="elajr6jvx6a4d" fill="#fff" d="M313 374V258l-5-3v116a2 2 0 0 0 1 1l5 4a2 2 0 0 1-1-2Z" class="animable" opacity=".2" transform-origin="310.94px 315.22px 0"/><path id="elcna9b20ivq9" fill="#455a64" d="M316 376a3 3 0 0 1-1 0 3 3 0 0 0 1 0Z" class="animable" transform-origin="315.67px 375.68px 0"/><path id="el0is0l0fzc6g" fill="#455a64" d="M315 376Z" class="animable" transform-origin="315.045px 375.87px 0"/><path id="eljkqdj8x1nt" fill="#455a64" d="M314 376Z" class="animable" transform-origin="314.24px 375.78px 0"/><path id="elp59xj9fh79" fill="#7e57c2" d="M313 250v-5a5 5 0 0 1 3-4l139-80a2 2 0 0 1 2-1l-6-3a2 2 0 0 0-1 0l-140 81a5 5 0 0 0-2 4v5l5 3Z" class="animable" transform-origin="382.255px 203.408px 0"/><path id="el6kbj0i8za35" fill="#fff" d="M313 250v-5a5 5 0 0 1 3-4l139-80a2 2 0 0 1 2-1l-6-3a2 2 0 0 0-1 0l-140 81a5 5 0 0 0-2 4v5l5 3Z" class="animable" opacity=".3" transform-origin="382.255px 203.408px 0"/><path id="elrkfgvw2nm0a" d="M313 258v-8l-5-3v8l5 3z" class="animable" opacity=".2" transform-origin="310.485px 252.33px 0"/><path id="elnistjexejrb" fill="#7e57c2" d="M455 161c1-1 2-1 2 1v5l-144 83v-5a5 5 0 0 1 3-4Z" class="animable" transform-origin="385.335px 205.043px 0"/><path id="elizqh22cb1xh" fill="#fff" d="m446 168 1 1a3 3 0 0 1-1 2c-1 1-2 0-2-1a3 3 0 0 1 2-2Z" class="animable" transform-origin="445.62px 169.68px 0"/><path id="el56lv9uw9h18" fill="#fff" d="m450 166 1 1a3 3 0 0 1-1 2l-2-1a3 3 0 0 1 2-2Z" class="animable" transform-origin="449.65px 167.355px 0"/><path id="elq2kqpgpf4wd" fill="#fff" d="M454 164h1a3 3 0 0 1-1 3l-2-1a3 3 0 0 1 2-2Z" class="animable" transform-origin="453.67px 165.034px 0"/><path id="el4my91feoy86" fill="#e0e0e0" d="M342 229h1l2 2h1l111-64v8l-144 83v-8l4-3a3 3 0 0 0 2-1l1-4a3 3 0 0 1 1-1Z" class="animable" transform-origin="385.295px 212.21px 0"/><path id="ellgsgcd7aza9" fill="#7e57c2" d="m457 175 1 116a5 5 0 0 1-3 4l-139 81c-1 0-3 0-3-2V258Z" class="animable" transform-origin="385.445px 275.237px 0"/><g id="elh3e6wu3dotd" class="animable" opacity=".4"><path id="el5uo94knndjd" fill="#fff" d="m457 175 1 116a5 5 0 0 1-3 4l-139 81c-1 0-3 0-3-2V258Z" class="animable" transform-origin="385.445px 275.237px 0"/></g><path id="elilltgo6n84" fill="#fff" d="M452 172c1-1 2-1 2 1a4 4 0 0 1-2 3l-122 70c-1 1-2 0-2-1a4 4 0 0 1 2-3Z" class="animable" transform-origin="390.685px 208.749px 0"/><path id="eli0oqhh4ud3l" fill="#e0e0e0" d="M315 251h1l-1 1 2-1a1 1 0 0 1 0 1l-2 1h1v1h-1l-1-1 1-2Z" class="animable" transform-origin="315.6px 252.181px 0"/><path id="ellpmkic2q7wo" fill="#e0e0e0" d="m320 248 1 1-1 2v-1l-2 1a1 1 0 0 1 0-1l2-1v-1Z" class="animable" transform-origin="319.765px 249.634px 0"/><path id="eli34zw2ux5a" fill="#e0e0e0" d="M324 246a1 1 0 0 1 1 0v-1 1l-1 1v-1a2 2 0 0 0-1 2h1a2 2 0 0 0 1-1 3 3 0 0 1-1 2l-1-1a3 3 0 0 1 1-2Z" class="animable" transform-origin="324.018px 247.083px 0"/><g id="elzkwfx6l7yhs" class="animable" opacity=".3"><path id="el0jc1jj5b10qp" d="M315 251h1l-1 1 2-1a1 1 0 0 1 0 1l-2 1h1v1h-1l-1-1 1-2Z" class="animable" transform-origin="315.6px 252.181px 0"/></g><g id="el1zi1rzufb6u" class="animable" opacity=".3"><path id="elmtxu9cqo79g" d="m320 248 1 1-1 2v-1l-2 1a1 1 0 0 1 0-1l2-1v-1Z" class="animable" transform-origin="319.765px 249.634px 0"/></g><g id="elwak6bcqfcz" class="animable" opacity=".3"><path id="el9spvlebbdd" d="M324 246a1 1 0 0 1 1 0v-1 1l-1 1v-1a2 2 0 0 0-1 2h1a2 2 0 0 0 1-1 3 3 0 0 1-1 2l-1-1a3 3 0 0 1 1-2Z" class="animable" transform-origin="324.018px 247.083px 0"/></g><path id="elyvz960zgrl" fill="#fff" d="M398 239v79l-76 44v-79l76-44z" class="animable" transform-origin="359.685px 300.28px 0"/><path id="elk77d5lebib" fill="#7e57c2" d="m387 262-34 54v14l6-13-6 13-5-14 39-54z" class="animable" transform-origin="367.445px 295.795px 0"/><path id="elx6zgjek7yd" d="m387 262-34 54v14l6-13-6 13-5-14 39-54z" class="animable" opacity=".3" transform-origin="367.445px 295.795px 0"/><path id="ela1ad2457axt" fill="#7e57c2" d="m353 316 6 1-6 13v-14z" class="animable" transform-origin="356.085px 323.055px 0"/><path id="eldeadqg2m5pt" d="m353 316 6 1-6 13v-14z" class="animable" opacity=".5" transform-origin="356.085px 323.055px 0"/><path id="elszyaepfnoce" fill="#7e57c2" d="m387 262-39 54-17-1 56-53z" class="animable" transform-origin="359.255px 288.89px 0"/><path id="elhx1w6qtevdt" fill="#7e57c2" d="m353 316 34-54-7 56-21-1-6-1z" class="animable" transform-origin="369.9px 289.855px 0"/><path id="elijsac9by9cl" fill="#fff" d="m331 315 17 1 5 14 6-13 21 1 7-56-56 53z" class="animable" opacity=".3" transform-origin="359.255px 295.795px 0"/><path id="eljlyhosanfr" fill="#7e57c2" d="M451 182c1-1 2 0 2 1a6 6 0 0 1-2 5l-109 63c-2 1-3 0-3-2a6 6 0 0 1 3-4Z" class="animable" transform-origin="396.19px 216.265px 0"/><g id="elv59kb126uxp" class="animable" opacity=".7"><path id="el7noqkkm3lwr" fill="#fff" d="M451 182c1-1 2 0 2 1a6 6 0 0 1-2 5l-109 63c-2 1-3 0-3-2a6 6 0 0 1 3-4Z" class="animable" transform-origin="396.19px 216.265px 0"/></g><path id="el872m8nlmdo7" fill="#7e57c2" d="M334 249c1 0 2 0 2 2a6 6 0 0 1-2 4l-10 6c-2 1-3 0-3-2a6 6 0 0 1 3-4Z" class="animable" transform-origin="328.73px 255.147px 0"/><path id="elys7ku611" fill="#7e57c2" d="M343 255c1-1 2 0 2 2a6 6 0 0 1-2 4l-19 11c-2 1-3 0-3-1a6 6 0 0 1 3-5Z" class="animable" transform-origin="333.105px 263.523px 0"/><path id="el4vuvkrqfm43" fill="#7e57c2" d="M370 239c1-1 2 0 2 2a6 6 0 0 1-2 4l-19 11c-2 1-3 0-3-1a6 6 0 0 1 3-5Z" class="animable" transform-origin="360.355px 247.663px 0"/><path id="elg25g3m8qxlf" fill="#7e57c2" d="M397 223c1 0 3 0 3 2a6 6 0 0 1-3 4l-19 11c-1 1-2 0-2-1a6 6 0 0 1 2-5Z" class="animable" transform-origin="387.605px 231.803px 0"/><path id="elh72m7xe37a8" fill="#7e57c2" d="M424 208c2-1 3-1 3 1a6 6 0 0 1-3 4l-19 11c-1 1-2 1-2-1a6 6 0 0 1 2-4Z" class="animable" transform-origin="414.855px 215.942px 0"/><path id="el1lvwf02uphl" fill="#7e57c2" d="M452 192c1-1 2-1 2 1a6 6 0 0 1-2 4l-19 12c-2 0-3 0-3-2a6 6 0 0 1 3-4Z" class="animable" transform-origin="442.105px 200.082px 0"/><g id="el1mzjhy9zaft" class="animable" opacity=".2"><path id="el0j6edra0edyd" fill="#fff" d="M343 255c1-1 2 0 2 2a6 6 0 0 1-2 4l-19 11c-2 1-3 0-3-1a6 6 0 0 1 3-5Z" class="animable" transform-origin="333.105px 263.523px 0"/><path id="elund69ckrqit" fill="#fff" d="M370 239c1-1 2 0 2 2a6 6 0 0 1-2 4l-19 11c-2 1-3 0-3-1a6 6 0 0 1 3-5Z" class="animable" transform-origin="360.355px 247.663px 0"/><path id="ell3g2dqgejo" fill="#fff" d="M397 223c1 0 3 0 3 2a6 6 0 0 1-3 4l-19 11c-1 1-2 0-2-1a6 6 0 0 1 2-5Z" class="animable" transform-origin="387.605px 231.803px 0"/><path id="elfkenz03ohhu" fill="#fff" d="M424 208c2-1 3-1 3 1a6 6 0 0 1-3 4l-19 11c-1 1-2 1-2-1a6 6 0 0 1 2-4Z" class="animable" transform-origin="414.855px 215.942px 0"/><path id="elqdq2egywdzi" fill="#fff" d="M452 192c1-1 2-1 2 1a6 6 0 0 1-2 4l-19 12c-2 0-3 0-3-2a6 6 0 0 1 3-4Z" class="animable" transform-origin="442.105px 200.082px 0"/></g><path id="elckwngtqqhf6" fill="#7e57c2" d="M433 220v5l-27 15v-5l27-15z" class="animable" transform-origin="419.6px 229.98px 0"/><path id="elfojbik1sp1v" fill="#7e57c2" d="M440 224v3l-34 19v-3l34-19z" class="animable" transform-origin="422.98px 235.025px 0"/><g id="elvkpokbmzkp" class="animable" opacity=".1"><path id="el3rgisngx3h8" fill="#fff" d="M433 220v5l-27 15v-5l27-15z" class="animable" transform-origin="419.6px 229.98px 0"/><path id="el7n5rhchiikt" fill="#fff" d="M440 224v3l-34 19v-3l34-19z" class="animable" transform-origin="422.98px 235.025px 0"/><path id="el3jzt6zgvayo" fill="#fff" d="M434 245v3l-28 16v-3l28-16z" class="animable" transform-origin="420.095px 254.53px 0"/><path id="elir8qkv2g8t" fill="#fff" d="M440 236v3l-34 19v-3l34-19z" class="animable" transform-origin="423.015px 246.975px 0"/><path id="elxb5z3czov5i" fill="#fff" d="M422 240v3l-16 9v-3l16-9z" class="animable" transform-origin="413.995px 246.16px 0"/></g><path id="elp6hzhuzcbfb" fill="#7e57c2" d="M438 280v3l-31 18v-3l31-18z" class="animable" transform-origin="422.77px 290.74px 0"/><path id="elypl56rzez5d" fill="#7e57c2" d="M453 266v3l-46 27v-3l46-27z" class="animable" transform-origin="429.845px 280.98px 0"/><g id="elz3xd624mtas" class="animable" opacity=".1"><path id="elx2yuo2onc8r" fill="#fff" d="M438 280v3l-31 18v-3l31-18z" class="animable" transform-origin="422.77px 290.74px 0"/><path id="el739prhu07x8" fill="#fff" d="M453 266v3l-46 27v-3l46-27z" class="animable" transform-origin="429.845px 280.98px 0"/></g><path id="elbrm3b777xp" fill="#7e57c2" d="M434 245v3l-28 16v-3l28-16z" class="animable" transform-origin="420.095px 254.53px 0"/><path id="eliqmsqjrwgw" fill="#7e57c2" d="M440 236v3l-34 19v-3l34-19z" class="animable" transform-origin="423.015px 246.975px 0"/><path id="elpr945nvailh" fill="#7e57c2" d="M422 240v3l-16 9v-3l16-9z" class="animable" transform-origin="413.995px 246.16px 0"/></g><g id="icon" class="animable" style="animation:1s 1 forwards cubic-bezier(.36,-.01,.5,1.38) slideDown,1.5s Infinite linear floating;animation-delay:0s,1s"><path id="elb73er8237q5" fill="#7e57c2" d="M144 79a5 5 0 0 0-4-2l-64 37a3 3 0 0 0-2 3v52a3 3 0 0 0 5 3l64-36a3 3 0 0 0 1-3V80a1 1 0 0 0 0-1Z" class="animable" transform-origin="109.41px 124.674px 0"/><path id="elavocs93q4zb" fill="#fff" d="M74 117v52a3 3 0 0 0 5 3 1 1 0 0 1-1 0v-53a3 3 0 0 1 0-2l-3-2a3 3 0 0 0-1 2Z" class="animable" opacity=".2" transform-origin="76.58px 143.884px 0"/><path id="elbq4if66mm6t" fill="#fff" d="m140 77-64 37a3 3 0 0 0-1 1l3 2a3 3 0 0 1 1-1l64-37a1 1 0 0 1 1 0 5 5 0 0 0-4-2Z" class="animable" opacity=".4" transform-origin="109.55px 96.83px 0"/><path id="elvzyx7x0s9fk" fill="#fff" d="M144 79a5 5 0 0 0-4-2l-64 37a3 3 0 0 0-2 3v52a3 3 0 0 0 5 3l64-36a3 3 0 0 0 1-3V80a1 1 0 0 0 0-1Z" class="animable" opacity=".3" transform-origin="109.41px 124.674px 0"/><g id="elde2rrznd07b" class="animable" opacity=".6"><path id="elpqmivducmw8" fill="#fff" d="m102 117 22 2-22 27v-29z" class="animable" transform-origin="112.885px 131.11px 0"/></g></g><g id="freepik--Pictures--inject-103" class="animable"><path id="elrzrzizm5v9" fill="#7e57c2" d="M104 229h1v7l-21 13-25 14v-7h1a20 20 0 0 1 3-3h1a20 20 0 0 1 2-1h1a44 44 0 0 1 9-2 22 22 0 0 0 8-2v-1h1l12-11v-1l1-1a34 34 0 0 1 6-5Z" class="animable" transform-origin="82.24px 245.675px 0"/><path id="el0jex8oobkwuj" d="M104 229h1v7l-21 13-25 14v-7h1a20 20 0 0 1 3-3h1a20 20 0 0 1 2-1h1a44 44 0 0 1 9-2 22 22 0 0 0 8-2v-1h1l12-11v-1l1-1a34 34 0 0 1 6-5Z" class="animable" opacity=".4" transform-origin="82.24px 245.675px 0"/><path id="el50jyt6uakpk" fill="#fff" d="M79 227c2-1 4 0 4 3a11 11 0 0 1-4 8c-3 2-5 1-5-2a11 11 0 0 1 5-9Z" class="animable" transform-origin="78.595px 232.768px 0"/><path id="elxis8xa7r9ge" fill="#5d3464" d="M84 248a22 22 0 0 1-8 2 22 22 0 0 0 8-2Z" class="animable" transform-origin="80.035px 248.67px 0"/><path id="el87olrfx5rmc" fill="#7e57c2" d="M64 243a6 6 0 0 1 1 0 6 6 0 0 1 3 0l6 1a5 5 0 0 0 4-1 11 11 0 0 0 3-3 15 15 0 0 1 3-3h1a4 4 0 0 1 3-1 5 5 0 0 0 3-1 12 12 0 0 0 3-3l4-5a17 17 0 0 1 3-3 6 6 0 0 1 1-1 7 7 0 0 1 3 0v6h-1a34 34 0 0 0-6 5l-1 1-1 1-11 11h-1v1a22 22 0 0 1-8 2h-1a44 44 0 0 0-8 1l-1 1a20 20 0 0 0-3 1 20 20 0 0 0-3 3h-1v-8l1-2a14 14 0 0 1 4-3Z" class="animable" transform-origin="82.19px 239.481px 0"/><g id="elyhibbnpjesi" class="animable" opacity=".2"><path id="elhkev838lqtm" d="M64 243a6 6 0 0 1 1 0 6 6 0 0 1 3 0l6 1a5 5 0 0 0 4-1 11 11 0 0 0 3-3 15 15 0 0 1 3-3h1a4 4 0 0 1 3-1 5 5 0 0 0 3-1 12 12 0 0 0 3-3l4-5a17 17 0 0 1 3-3 6 6 0 0 1 1-1 7 7 0 0 1 3 0v6h-1a34 34 0 0 0-6 5l-1 1-1 1-11 11h-1v1a22 22 0 0 1-8 2h-1a44 44 0 0 0-8 1l-1 1a20 20 0 0 0-3 1 20 20 0 0 0-3 3h-1v-8l1-2a14 14 0 0 1 4-3Z" class="animable" transform-origin="82.19px 239.481px 0"/></g><path id="elnpjz7v5z86e" fill="#7e57c2" d="m55 232 54-31v43l-54 32Zm50-9v-15l-46 27v34l46-27v-19" class="animable" transform-origin="82.21px 238.355px 0"/><g id="el9gu25hxvfa" class="animable" opacity=".6"><path id="elbvg9v6pqdx" fill="#fff" d="m55 232 54-31v43l-54 32Zm50-9v-15l-46 27v34l46-27v-19" class="animable" transform-origin="82.21px 238.355px 0"/></g><path id="elqfcaxuk8zj" fill="#455a64" d="m59 263 25-14 21-13v6l-46 27Z" class="animable" transform-origin="82.25px 252.565px 0"/><path id="elrunpp66ey0l" fill="#7e57c2" d="m59 235 46-27v15a7 7 0 0 0-3 0 6 6 0 0 0-1 1 17 17 0 0 0-3 3l-4 5a12 12 0 0 1-3 3 5 5 0 0 1-3 1 4 4 0 0 0-3 1 15 15 0 0 0-4 3 11 11 0 0 1-3 3 5 5 0 0 1-4 1l-6-1a6 6 0 0 0-3 0 6 6 0 0 0-1 0 14 14 0 0 0-4 3l-1 2Zm20 3a11 11 0 0 0 4-8c0-3-2-4-4-3a11 11 0 0 0-5 9c0 3 2 4 5 2" class="animable" transform-origin="82.17px 228.045px 0"/><path id="elumrkpozd3le" fill="#5d3464" d="M66 252a20 20 0 0 0-2 1 20 20 0 0 1 2-1Z" class="animable" transform-origin="64.775px 252.33px 0"/><path id="elj4g425d7q4" fill="#7e57c2" d="m330 150 60-35 1 62-61 35Zm55 24v-49l-49 28v49l49-28" class="animable" transform-origin="360.405px 163.545px 0"/><path id="elwr14o6k0ezf" fill="#fff" d="m330 150 60-35 1 62-61 35Zm55 24v-49l-49 28v49l49-28" class="animable" opacity=".6" transform-origin="360.405px 163.545px 0"/><path id="el710b3nd1np4" fill="#fafafa" d="m361 144 14 2-15 18-14-1 15-19z" class="animable" transform-origin="360.455px 154.135px 0"/><path id="el1t3e90wb537h" fill="#ebebeb" d="M375 146v18l-15 19v-19l15-18z" class="animable" transform-origin="367.54px 164.095px 0"/><path id="elpclhfhw738" fill="#e0e0e0" d="m346 163 14 1v19l-14-2v-18z" class="animable" transform-origin="353.08px 172.69px 0"/><path id="el5qrc55rtez4" fill="#7e57c2" d="m336 153 49-28v49l-49 28Zm39 11v-18l-14-2-15 19v18l14 2 15-19" class="animable" transform-origin="360.405px 163.5px 0"/><g id="elwc7ae6d70z" class="animable" opacity=".2"><path id="elxq98maray6j" fill="#fff" d="m336 153 49-28v49l-49 28Zm39 11v-18l-14-2-15 19v18l14 2 15-19" class="animable" transform-origin="360.405px 163.5px 0"/></g><path id="eltl7u54bhwo" fill="#7e57c2" d="m386 91 28-16v42l-28 16Zm18 18a12 12 0 0 1 1-5 17 17 0 0 0 3-8c0-6-4-8-8-5s-8 9-8 14l2 6a3 3 0 0 1 2 2v1a2 2 0 0 0 1 1v3-1 3l2 1h1a1 1 0 0 0 1-1h-1a5 5 0 0 0 2-3v-1l1-1v-1h-1 1v-1h-1l1-1v-1a7 7 0 0 0 1-2m0-21h1l1-4v-1 1l-2 4m-11 3v1l2 2-2-3m14 19-2-3v1l1 2h1m-12 3-2 4v1a1 1 0 0 0 1-1l1-4m-3-2h-1l-3 3v1h1l3-4m19-9v-1h-3l3 1m-3-12 3-3v-1l-3 4m-20 10h4l-3-1-1 1m12-14v4a1 1 0 0 0 0-1v-4a1 1 0 0 0 0 1m13 7-3 2a1 1 0 0 0-1 0h1l3-2m-26 15 3-2h1-1l-3 2" class="animable" transform-origin="399.885px 103.865px 0"/><path id="elhb8418jl28a" fill="#37474f" d="M401 120a1 1 0 0 1-1 1h-1l2-1Z" class="animable" transform-origin="399.935px 120.418px 0"/><path id="el2v0htdnd8r" fill="#455a64" d="M403 116v1a5 5 0 0 1-2 3l-2 1-2-1Z" class="animable" transform-origin="399.97px 118.601px 0"/><path id="eldz5cjp2eup" fill="#37474f" d="M397 118v-1l6-3-6 4z" class="animable" transform-origin="399.91px 115.855px 0"/><path id="el477qck6mtm8" fill="#455a64" d="M403 113v1l-6 3v1-2l6-3z" class="animable" transform-origin="399.91px 115.09px 0"/><path id="el2sbej3vt913" fill="#fff" d="M403 99v5a3 3 0 0 1 0 2l-1 1a2 2 0 0 0 0 1v4-4a3 3 0 0 1 0-1l1-2a2 2 0 0 0 0-1v-4a1 1 0 0 0-1 1v3a2 2 0 0 1-1 2l-1-1v-4a1 1 0 0 0-1 1v4a2 2 0 0 1 0 2l-1-1v-4h-1a1 1 0 0 0 0 1v4a1 1 0 0 0 0 1h1a1 1 0 0 1 0 1v4-4a1 1 0 0 0-1 0v-1a1 1 0 0 1-1-1v-4a2 2 0 0 1 1-1h1v4h1a1 1 0 0 0 0-1v-4a2 2 0 0 1 1-1h1v5a1 1 0 0 0 1-1v-4a2 2 0 0 1 1-2Z" class="animable" transform-origin="399.871px 106.781px 0"/><path id="ele0u33p66amp" fill="#7e57c2" d="m417 69-35 20v50l35-20Zm-31 64V91l28-16v42l-28 16" class="animable" transform-origin="399.89px 103.85px 0"/><g id="elrvzn9xiq9dm" class="animable" opacity=".6"><path id="el85ci1p49axi" fill="#fff" d="m417 69-35 20v50l35-20Zm-31 64V91l28-16v42l-28 16" class="animable" transform-origin="399.89px 103.85px 0"/></g><path id="elvuzta4ij4dh" fill="#37474f" d="M397 120v-1l6-3-6 4z" class="animable" transform-origin="399.915px 117.545px 0"/><path id="elf0dk53shq2s" fill="#455a64" d="M403 114v2l-6 3v-1l6-4z" class="animable" transform-origin="399.91px 116.615px 0"/><path id="el37hvlahjebr" fill="#37474f" d="m397 116 6-3-6 3z" class="animable" transform-origin="399.905px 114.33px 0"/><path id="el90jasxdvzw" fill="#7e57c2" d="M400 91c4-3 8-1 8 5a17 17 0 0 1-3 8 12 12 0 0 0-1 5 7 7 0 0 1-1 2l-1 1v-4a2 2 0 0 1 0-1l1-1a3 3 0 0 0 0-2v-5a2 2 0 0 0-1 2v4a1 1 0 0 1-1 1v-4l-1-1a2 2 0 0 0-1 1v4a1 1 0 0 1 0 1h-1v-4h-1a2 2 0 0 0-1 1v4a1 1 0 0 0 1 1l1 1v4l-1 1a2 2 0 0 1-1-1v-1a3 3 0 0 0-2-2l-2-6c0-5 3-11 8-14Z" class="animable" transform-origin="399.895px 102.341px 0"/><path id="elti4792aoy0a" fill="#7e57c2" d="M402 107a3 3 0 0 0 0 1v4l-4 2v-4a1 1 0 0 0 0-1h-1a1 1 0 0 1 0-1v-4a1 1 0 0 1 0-1h1v4h1a2 2 0 0 0 0-1v-4a1 1 0 0 1 1-1v4l1 1a2 2 0 0 0 1-2v-3a1 1 0 0 1 1-1v4a2 2 0 0 1 0 1Z" class="animable" transform-origin="399.877px 106.888px 0"/><g id="elppiomclvp8r" class="animable" opacity=".4"><path id="elagb6k98tudl" fill="#fff" d="M400 91c4-3 8-1 8 5a17 17 0 0 1-3 8 12 12 0 0 0-1 5 7 7 0 0 1-1 2l-1 1v-4a2 2 0 0 1 0-1l1-1a3 3 0 0 0 0-2v-5a2 2 0 0 0-1 2v4a1 1 0 0 1-1 1v-4l-1-1a2 2 0 0 0-1 1v4a1 1 0 0 1 0 1h-1v-4h-1a2 2 0 0 0-1 1v4a1 1 0 0 0 1 1l1 1v4l-1 1a2 2 0 0 1-1-1v-1a3 3 0 0 0-2-2l-2-6c0-5 3-11 8-14Z" class="animable" transform-origin="399.895px 102.341px 0"/><path id="el93ii4ay3uri" fill="#fff" d="M402 107a3 3 0 0 0 0 1v4l-4 2v-4a1 1 0 0 0 0-1h-1a1 1 0 0 1 0-1v-4a1 1 0 0 1 0-1h1v4h1a2 2 0 0 0 0-1v-4a1 1 0 0 1 1-1v4l1 1a2 2 0 0 0 1-2v-3a1 1 0 0 1 1-1v4a2 2 0 0 1 0 1Z" class="animable" transform-origin="399.877px 106.888px 0"/></g><path id="elh0wsdksxa4" fill="#455a64" d="M403 111v2l-6 3v-1l6-4z" class="animable" transform-origin="399.905px 113.565px 0"/><path id="elawqxpa9kb9k" fill="#fff" d="m389 99 3 1h-4l1-1Z" class="animable" transform-origin="390px 99.6848px 0"/><path id="elf07t3ej38on" fill="#fff" d="m405 107 2 3h-1l-2-2 1-1Z" class="animable" transform-origin="405.576px 108.559px 0"/><path id="el6b35q4avopm" fill="#fff" d="m413 93-3 2h-1Z" class="animable" transform-origin="411.249px 93.9662px 0"/><path id="elheb6yzmqzdp" fill="#fff" d="M411 86v1l-3 3 3-4Z" class="animable" transform-origin="409.695px 88.3169px 0"/><path id="eldhwnxqrcrrs" fill="#fff" d="m392 111-3 4h-1v-1l3-3h1Z" class="animable" transform-origin="390.063px 112.719px 0"/><path id="elrqzelfuedmd" fill="#fff" d="m406 83 1 1-2 4h-1l2-4v-1Z" class="animable" transform-origin="405.514px 85.9616px 0"/><path id="elirxg6vpy1vs" fill="#fff" d="m390 106-3 2Z" class="animable" transform-origin="388.51px 107.075px 0"/><path id="el1olllwxdx4c" fill="#fff" d="M400 85v4a1 1 0 0 1 0 1v-4a1 1 0 0 1 0-1Z" class="animable" transform-origin="399.825px 87.47px 0"/><path id="elpy2i88zs4d" fill="#fff" d="m393 91 2 2v1l-2-2v-1Z" class="animable" transform-origin="394.138px 92.5px 0"/><path id="ellhv5x24ipei" fill="#fff" d="M408 101h3v1h-3v-1Z" class="animable" transform-origin="409.711px 101.395px 0"/><path id="el9ztwwdk8p8m" fill="#fff" d="m395 113-1 4a1 1 0 0 1-1 1v-1l2-4Z" class="animable" transform-origin="394.223px 115.119px 0"/><path id="elzgms484rw1" fill="#455a64" d="m289 151 7-2-7 11-8 10 8-19z" class="animable" transform-origin="288.375px 159.54px 0"/><path id="el31elt3mopuq" fill="#37474f" d="m311 122-8 30-13 15-4 10-15 9 10-16 8-10 7-11 15-27z" class="animable" transform-origin="291.19px 153.915px 0"/><path id="el8fxnqj29wd2" fill="#7e57c2" d="M337 96v41l-6-6-4 4-16-13-15 27-7 2-8 19-10 16 15-9 17-10 8-4 26-15-66 38v-52l66-38z" class="animable" transform-origin="303.99px 140.77px 0"/><path id="el96012wefwzo" d="M337 96v41l-6-6-4 4-16-13-15 27-7 2-8 19-10 16 15-9 17-10 8-4 26-15-66 38v-52l66-38z" class="animable" opacity=".2" transform-origin="303.99px 140.77px 0"/><path id="el6tl9sk5ugam" fill="#455a64" d="m331 131 6 6v11l-26 15 3-5 6-7 11-20z" class="animable" transform-origin="324.025px 146.565px 0"/><path id="elikz8qt6qh2b" fill="#455a64" d="m311 122 16 13-14 16-10 16-17 10 4-10 13-15 8-30z" class="animable" transform-origin="306.62px 149.63px 0"/><path id="el8fiuxaikt2i" fill="#7e57c2" d="m265 130 77-44 1 65-77 45Zm72 7V96l-66 38v52l66-38v-11" class="animable" transform-origin="303.99px 140.79px 0"/><path id="elaqia6fm5xt" fill="#fff" d="m265 130 77-44 1 65-77 45Zm72 7V96l-66 38v52l66-38v-11" class="animable" opacity=".6" transform-origin="303.99px 140.79px 0"/><path id="eln8cypo3vxfs" fill="#37474f" d="m331 131-11 20-6 7-3 5-8 4 10-16 14-16 4-4z" class="animable" transform-origin="316.88px 148.97px 0"/><path id="el0mqfbrpgz5v" fill="#7e57c2" d="M143 160v31l-39 22v-31l39-22z" class="animable" transform-origin="123.83px 186.665px 0"/><g id="elf3ewfgu1mse" class="animable" opacity=".1"><path id="elvxohketr35p" d="M143 160v31l-39 22v-31l39-22z" class="animable" transform-origin="123.83px 186.665px 0"/></g><path id="elzy5hjw52ll" fill="#7e57c2" d="m101 181 46-27v39l-46 26Zm42 10v-31l-39 22v31l39-22" class="animable" transform-origin="123.855px 186.665px 0"/><g id="elvi46ptxliji" class="animable" opacity=".6"><path id="el3nloolb4vqz" fill="#fff" d="m101 181 46-27v39l-46 26Zm42 10v-31l-39 22v31l39-22" class="animable" transform-origin="123.855px 186.665px 0"/></g><path id="elist3k6exvhn" fill="#37474f" d="m137 169 1 1v18a3 3 0 0 1-1 2l-7 4c3-4 5-9 5-14s-2-7-5-7Z" class="animable" transform-origin="133.965px 181.082px 0"/><path id="elu8y786htcpe" fill="#263238" d="M124 178c4-2 7 0 7 4a16 16 0 0 1-7 13c-4 3-8 1-8-4a17 17 0 0 1 8-13Zm-2 9a5 5 0 0 0 2-4c0-1-1-2-3-1a5 5 0 0 0-2 4c0 1 1 2 2 1" class="animable" transform-origin="123.83px 186.653px 0"/><path id="elkicfc6dnrkl" fill="#37474f" d="M118 180c-3 4-5 9-5 13s2 7 5 8l-7 4-1-1v-18a3 3 0 0 1 1-2Z" class="animable" transform-origin="113.675px 192.248px 0"/><path id="elgeqfqoccq5q" fill="#fff" d="M121 182c2-1 3-1 3 1a5 5 0 0 1-3 4c-1 1-2 0-2-1a5 5 0 0 1 2-4Z" class="animable" transform-origin="121.49px 184.287px 0"/><path id="eluch1dpo17w8" fill="#455a64" d="M130 173c3 0 5 3 5 7s-2 10-5 14a21 21 0 0 1-6 5 9 9 0 0 1-6 2c-3-1-5-4-5-8s2-9 5-13a21 21 0 0 1 6-6 9 9 0 0 1 6-1Zm-6 22a16 16 0 0 0 7-13c0-4-3-6-7-4a17 17 0 0 0-8 13c0 5 4 7 8 4" class="animable" transform-origin="123.86px 186.665px 0"/><path id="elnqctzgxgch" fill="#7e57c2" d="m323 66 50-29v51l-49 29Zm45 19V45l-40 24v40l40-24" class="animable" transform-origin="348.145px 76.985px 0"/><path id="el7snwbeymoh" fill="#fff" d="m323 66 50-29v51l-49 29Zm45 19V45l-40 24v40l40-24" class="animable" opacity=".6" transform-origin="348.145px 76.985px 0"/><path id="eliad9c2nbura" fill="#7e57c2" d="m368 45-40 24v40l40-24V45z" class="animable" transform-origin="348.145px 76.99px 0"/><path id="elz6p53zayjj" fill="#f0f0f0" d="M344 73a3 3 0 0 1 1 1 11 11 0 0 0-2 4 7 7 0 0 1-1 0 8 8 0 0 1-1 1 13 13 0 0 1 1-3 16 16 0 0 1 2-3Z" class="animable" transform-origin="342.925px 75.815px 0"/><path id="elkdyjvu232rm" fill="#f0f0f0" d="M338 79a7 7 0 0 0 3 0 9 9 0 0 0 0 1 8 8 0 0 0 0 2 20 20 0 0 0-3 3v1c-3 1-3 0-3-2s0-3 3-5Z" class="animable" transform-origin="338.045px 82.4643px 0"/><path id="elcyagj5u9xun" fill="#f0f0f0" d="M353 80a5 5 0 0 0 2 1 7 7 0 0 0 1 0c1 2 0 3-1 5a6 6 0 0 1-2 1 2 2 0 0 1-2 0v-1a10 10 0 0 0 0-4 15 15 0 0 0 1-1 14 14 0 0 0 1-1Z" class="animable" transform-origin="353.444px 83.6448px 0"/><path id="elgh9a9yf3nlo" fill="#fff" d="M355 74a7 7 0 0 1 3-1 5 5 0 0 1 1 0c2 1 1 2 1 4a5 5 0 0 1-2 3 4 4 0 0 1-2 1 7 7 0 0 1-1 0 5 5 0 0 1-2-1v-1a16 16 0 0 0 1-2 14 14 0 0 0 1-3Z" class="animable" transform-origin="356.458px 77.0265px 0"/><path id="elc01fzo6utx" fill="#e0e0e0" d="M352 78a3 3 0 0 0 1 2 14 14 0 0 1-1 1 15 15 0 0 1-1 1l-1 1 1-1a3 3 0 0 0-1-1 11 11 0 0 0 2-3Z" class="animable" transform-origin="351.295px 80.67px 0"/><path id="elcfldrk7mhp6" fill="#f0f0f0" d="M354 74a7 7 0 0 1 1 0 14 14 0 0 1-1 3 16 16 0 0 1-1 2v1a3 3 0 0 1-1-2 11 11 0 0 0 1-3 6 6 0 0 1 1-1Z" class="animable" transform-origin="353.35px 76.79px 0"/><path id="elaqagm2d1qdm" fill="#f0f0f0" d="M359 67c2-1 2 0 2 2s0 3-2 4a5 5 0 0 0-1 0 7 7 0 0 0-3 1 11 11 0 0 0 0-2 7 7 0 0 0 0-1 20 20 0 0 0 3-3Z" class="animable" transform-origin="358.22px 70.1707px 0"/><path id="elj8krht1l3gf" fill="#fff" d="M351 82a10 10 0 0 1 0 4v1c0 3-1 4-3 5s-2 1-3-2a9 9 0 0 1 0-1 15 15 0 0 1 1-4 7 7 0 0 0 2-1 11 11 0 0 0 2-1Z" class="animable" transform-origin="348.209px 87.3164px 0"/><path id="elk6n8f1dj939" fill="#e0e0e0" d="M355 71a7 7 0 0 1 0 1 11 11 0 0 1 0 2 7 7 0 0 0-1 0 6 6 0 0 0-1 1 8 8 0 0 0 0-2 5 5 0 0 0 0-1 4 4 0 0 0 1 0 9 9 0 0 0 1-1Z" class="animable" transform-origin="354.05px 72.91px 0"/><path id="ellpk5xe4ulvh" fill="#f0f0f0" d="M350 81a3 3 0 0 1 1 1l-1 1a11 11 0 0 1-2 1 7 7 0 0 1-2 1 11 11 0 0 1 1-2 5 5 0 0 0 1-1 7 7 0 0 0 2-1Z" class="animable" transform-origin="348.16px 83.095px 0"/><path id="elslymnqp47v9" fill="#fff" d="M341 82a5 5 0 0 0 1 2 3 3 0 0 0 1 1 4 4 0 0 0 1 0 23 23 0 0 1-3 4l-1 1a8 8 0 0 1-1 1 1 1 0 0 1-2 0c-1-1-1-3 1-5v-1a20 20 0 0 1 3-3Z" class="animable" transform-origin="339.89px 86.5327px 0"/><path id="elovtfd87gnn" fill="#f0f0f0" d="M344 85a3 3 0 0 0 1 0 5 5 0 0 0 1 0 15 15 0 0 0-1 4 9 9 0 0 0 0 1 6 6 0 0 1-2 3 3 3 0 0 1-2 0c-1 0-2 0-1-3l1-1a23 23 0 0 0 3-4Z" class="animable" transform-origin="342.889px 89.2198px 0"/><path id="elkgwylh5qdbp" fill="#e0e0e0" d="M345 82a3 3 0 0 0 2 1 11 11 0 0 0-1 2 4 4 0 0 1-1 0 3 3 0 0 1-1 0 4 4 0 0 1-1 0 4 4 0 0 0 1 0 11 11 0 0 0 1-3Z" class="animable" transform-origin="345.005px 83.8615px 0"/><path id="el8ztmrg7ccsj" fill="#f0f0f0" d="M353 68a3 3 0 0 1 1 1 5 5 0 0 1 1 2 9 9 0 0 1-1 1 4 4 0 0 1-1 0 3 3 0 0 0-1-2 11 11 0 0 1 1-2Z" class="animable" transform-origin="353.315px 69.835px 0"/><path id="eljk2ngt09bi" fill="#fff" d="M358 62a1 1 0 0 1 2 0c0 1 1 2-1 5l-1 1a20 20 0 0 1-3 3 5 5 0 0 0-1-2 3 3 0 0 0-1-1 23 23 0 0 1 2-4l1-1a7 7 0 0 1 2-1Z" class="animable" transform-origin="356.365px 66.0674px 0"/><path id="elemhb7npfgis" fill="#e0e0e0" d="M351 67a4 4 0 0 1 1 0 4 4 0 0 1 1 1 11 11 0 0 0-1 2 3 3 0 0 0-2 0 11 11 0 0 0 1-3Z" class="animable" transform-origin="351.06px 68.7384px 0"/><path id="el61dh69oktpk" fill="#f0f0f0" d="M342 81a4 4 0 0 1 1-1 3 3 0 0 0 2 2 11 11 0 0 1-1 3 4 4 0 0 1-1 0 3 3 0 0 1-1-1 5 5 0 0 1-1-2 9 9 0 0 1 1-1Z" class="animable" transform-origin="342.985px 82.77px 0"/><path id="elzliajk5l2ga" fill="#7e57c2" d="M348 71a6 6 0 0 1 2-1 3 3 0 0 1 2 0 3 3 0 0 1 1 2 5 5 0 0 1 0 1 8 8 0 0 1 0 2 12 12 0 0 1-3 6 7 7 0 0 1-2 1 5 5 0 0 1-1 1 3 3 0 0 1-2-1 3 3 0 0 1-2-2 6 6 0 0 1 0-1 8 8 0 0 1 0-1 11 11 0 0 1 2-4 11 11 0 0 1 2-2 8 8 0 0 1 1-1Z" class="animable" transform-origin="348.15px 76.2847px 0"/><g id="ellqmpzk4sh2" class="animable" opacity=".5"><path id="elqkz4emolg" fill="#fff" d="M348 71a6 6 0 0 1 2-1 3 3 0 0 1 2 0 3 3 0 0 1 1 2 5 5 0 0 1 0 1 8 8 0 0 1 0 2 12 12 0 0 1-3 6 7 7 0 0 1-2 1 5 5 0 0 1-1 1 3 3 0 0 1-2-1 3 3 0 0 1-2-2 6 6 0 0 1 0-1 8 8 0 0 1 0-1 11 11 0 0 1 2-4 11 11 0 0 1 2-2 8 8 0 0 1 1-1Z" class="animable" transform-origin="348.15px 76.2847px 0"/></g><path id="el62tnq5rx5nj" fill="#fff" d="M339 72a4 4 0 0 1 1 0 5 5 0 0 1 1 0 5 5 0 0 1 3 1 16 16 0 0 0-2 3 13 13 0 0 0-1 3 7 7 0 0 1-3 0c-2 0-2-2-1-4a5 5 0 0 1 2-3Z" class="animable" transform-origin="339.833px 75.5688px 0"/><path id="el7jxojlnweye" fill="#e0e0e0" d="M341 79a8 8 0 0 0 1-1 7 7 0 0 0 1 0 8 8 0 0 0 0 1 6 6 0 0 0 0 2 4 4 0 0 0-1 0 9 9 0 0 0-1 1 8 8 0 0 1 0-2 9 9 0 0 1 0-1Z" class="animable" transform-origin="342.23px 79.99px 0"/><path id="el8emhyuhflch" fill="#f0f0f0" d="M353 60a3 3 0 0 1 2-1c1 0 2 1 1 4l-1 1a23 23 0 0 0-2 4 4 4 0 0 0-1-1 4 4 0 0 0-1 0 16 16 0 0 0 0-3v-1a6 6 0 0 1 2-3Z" class="animable" transform-origin="353.386px 63.3724px 0"/><path id="el9l5b2r1incb" fill="#f0f0f0" d="M348 68a7 7 0 0 1 3-1 11 11 0 0 1-1 3 6 6 0 0 0-2 1 8 8 0 0 0-1 1 3 3 0 0 1-1-2 12 12 0 0 1 2-2Z" class="animable" transform-origin="348.13px 69.47px 0"/><path id="elz2paly5wbl8" fill="#e0e0e0" d="M346 70a3 3 0 0 0 1 2 11 11 0 0 0-2 2 3 3 0 0 0-1-1 16 16 0 0 1 1-2 15 15 0 0 1 1-1Z" class="animable" transform-origin="345.2px 72.15px 0"/><path id="el06nz2oyi671p" fill="#fff" d="M348 61c2-1 3-1 3 2v1a16 16 0 0 1-1 3 7 7 0 0 0-2 1 12 12 0 0 0-2 2 10 10 0 0 1-1-3v-1l3-5Z" class="animable" transform-origin="348.074px 65.2939px 0"/><path id="elmx88k8l6opo" fill="#f0f0f0" d="M343 65a2 2 0 0 1 2 1v1a10 10 0 0 0 1 3 15 15 0 0 0-1 1 16 16 0 0 0-1 2 5 5 0 0 0-3-1 5 5 0 0 0-1 0c-1-2 0-4 1-5a6 6 0 0 1 2-2Z" class="animable" transform-origin="342.876px 68.9518px 0"/></g><defs><filter id="active" height="200%"><feMorphology in="SourceAlpha" operator="dilate" radius="2" result="DILATED"/><feFlood flood-color="#32DFEC" flood-opacity="1" result="PINK"/><feComposite in="PINK" in2="DILATED" operator="in" result="OUTLINE"/><feMerge><feMergeNode in="OUTLINE"/><feMergeNode in="SourceGraphic"/></feMerge></filter><filter id="hover" height="200%"><feMorphology in="SourceAlpha" operator="dilate" radius="2" result="DILATED"/><feFlood flood-color="red" flood-opacity=".5" result="PINK"/><feComposite in="PINK" in2="DILATED" operator="in" result="OUTLINE"/><feMerge><feMergeNode in="OUTLINE"/><feMergeNode in="SourceGraphic"/></feMerge><feColorMatrix values="0 0 0 0 0 0 1 0 0 0 0 0 0 0 0 0 0 0 1 0"/></filter></defs></svg>